<?xml version="1.0" encoding="UTF-8"?> <svg xmlns="http://www.w3.org/2000/svg" id="Layer_1" viewBox="0 0 309.92 160.74"><defs><style>.cls-1{fill:#fff;}</style></defs><path class="cls-1" d="m169.91,28.23v2.42h-8.99v23.31h-2.63v-23.31h-8.99v-2.42h20.6Z"></path><path class="cls-1" d="m176.11,53.96h-2.54v-27.29h2.54v8.78c1.4-.77,2.71-1.32,3.94-1.66,1.23-.34,2.46-.51,3.69-.51,2.22,0,3.9.56,5.05,1.68,1.15,1.12,1.72,2.78,1.72,4.97v14.03h-2.54v-13.75c0-1.59-.41-2.76-1.23-3.51-.82-.75-2.09-1.13-3.82-1.13-1.09,0-2.22.16-3.39.47-1.16.31-2.3.77-3.43,1.37v16.54Z"></path><path class="cls-1" d="m211.11,50.68v2.17c-.74.38-1.77.71-3.1.98s-2.66.41-4,.41c-3.12,0-5.35-.83-6.71-2.48-1.35-1.66-2.03-4.36-2.03-8.1s.69-6.28,2.07-7.92,3.62-2.46,6.71-2.46c2.82,0,4.84.66,6.07,1.97,1.23,1.31,1.85,3.46,1.85,6.44,0,.47-.01.92-.04,1.35-.03.44-.08.96-.16,1.56h-13.91c.03,2.6.53,4.47,1.52,5.6.98,1.14,2.67,1.7,5.05,1.7,1.15,0,2.34-.12,3.57-.35,1.23-.23,2.27-.53,3.12-.88Zm-1.48-9.32c-.03-2.08-.48-3.56-1.35-4.45-.88-.89-2.28-1.33-4.23-1.33-2.24,0-3.84.52-4.78,1.56-.94,1.04-1.42,2.8-1.42,5.29h11.7c.03-.16.05-.33.06-.51.01-.18.02-.36.02-.55Z"></path><path class="cls-1" d="m167.12,85.67v4.64h-16.09v-25.73h4.92v21.09h11.16Z"></path><path class="cls-1" d="m188.38,80.13c0,3.83-.73,6.55-2.2,8.15-1.46,1.6-3.96,2.4-7.49,2.4s-6.1-.79-7.55-2.36c-1.45-1.57-2.17-4.3-2.17-8.19s.74-6.5,2.22-8.1c1.48-1.6,3.98-2.4,7.51-2.4s6.06.79,7.51,2.36c1.45,1.57,2.17,4.29,2.17,8.15Zm-14.65-.04c0,2.52.31,4.17.94,4.97.63.79,1.97,1.19,4.02,1.19s3.32-.4,3.96-1.21c.64-.81.96-2.45.96-4.94s-.31-4.21-.92-5.01-1.95-1.19-4-1.19-3.36.41-4,1.23c-.64.82-.96,2.48-.96,4.97Z"></path><path class="cls-1" d="m210.58,80.13c0,3.83-.73,6.55-2.2,8.15-1.46,1.6-3.96,2.4-7.49,2.4s-6.1-.79-7.55-2.36c-1.45-1.57-2.17-4.3-2.17-8.19s.74-6.5,2.22-8.1c1.48-1.6,3.98-2.4,7.51-2.4s6.06.79,7.51,2.36c1.45,1.57,2.17,4.29,2.17,8.15Zm-14.65-.04c0,2.52.31,4.17.94,4.97.63.79,1.97,1.19,4.02,1.19s3.32-.4,3.96-1.21c.64-.81.96-2.45.96-4.94s-.31-4.21-.92-5.01-1.95-1.19-4-1.19-3.36.41-4,1.23c-.64.82-.96,2.48-.96,4.97Z"></path><path class="cls-1" d="m218.99,90.31h-4.76v-20.27h4.39l.21,1.52h.12c1.07-.66,2.09-1.14,3.06-1.46.97-.31,1.92-.47,2.85-.47,1.12,0,2.09.17,2.89.51.81.34,1.46.87,1.95,1.58h.12c1.01-.66,2.11-1.17,3.3-1.54s2.36-.55,3.51-.55c1.97,0,3.45.53,4.43,1.6.98,1.07,1.48,2.65,1.48,4.76v14.32h-4.76v-13.71c0-.93-.25-1.61-.76-2.05-.51-.44-1.31-.66-2.4-.66-.66,0-1.33.08-2.01.25-.68.16-1.31.38-1.89.66.03.14.04.29.04.45v15.06h-4.76v-13.71c0-.93-.25-1.61-.76-2.05-.51-.44-1.31-.66-2.4-.66-.57,0-1.18.08-1.83.23-.64.15-1.32.39-2.03.72v15.47Z"></path><path class="cls-1" d="m251.78,67.16h-5.05v-4.14h5.05v4.14Zm-.12,23.14h-4.76v-20.27h4.76v20.27Z"></path><path class="cls-1" d="m263.72,73.73c-1.45,0-2.44.14-2.98.43-.53.29-.8.91-.8,1.87,0,.47.11.81.33,1.05.22.23.59.39,1.11.47l5.05.74c1.61.22,2.74.72,3.39,1.52.64.79.96,2.05.96,3.77,0,2.49-.57,4.3-1.72,5.42-1.15,1.12-3.11,1.68-5.87,1.68-1.59,0-3.04-.07-4.35-.2-1.31-.14-2.42-.34-3.32-.62v-4.23c.85.22,1.89.4,3.12.55,1.23.15,2.48.23,3.73.23,1.42,0,2.39-.18,2.89-.53.51-.36.76-1.03.76-2.01,0-.49-.12-.87-.37-1.13-.25-.26-.66-.43-1.23-.51l-5.13-.74c-1.39-.19-2.42-.72-3.08-1.58-.66-.86-.98-2.11-.98-3.75,0-2.22.68-3.86,2.03-4.92,1.35-1.07,3.41-1.6,6.18-1.6,1.12,0,2.15.03,3.08.08.93.05,1.89.16,2.87.33v4.06c-.71-.11-1.57-.2-2.56-.27-1-.07-2.03-.1-3.1-.1Z"></path><path class="cls-1" d="m161.83,124.48c1.12,0,2.29-.14,3.51-.41,1.22-.27,2.39-.64,3.51-1.11v2.38c-1.51.6-2.83,1.02-3.98,1.25-1.15.23-2.34.35-3.57.35-3.88,0-6.63-1.02-8.25-3.06-1.61-2.04-2.42-5.42-2.42-10.16s.92-7.91,2.77-10.03c1.85-2.12,4.79-3.18,8.84-3.18,1.26,0,2.38.03,3.37.08.99.06,1.87.15,2.67.29v2.38c-.93-.11-1.87-.19-2.83-.25-.96-.05-2.02-.08-3.2-.08-3.26,0-5.55.83-6.89,2.48-1.34,1.66-2.01,4.43-2.01,8.31s.61,6.79,1.83,8.37c1.22,1.59,3.44,2.38,6.67,2.38Z"></path><path class="cls-1" d="m190.35,116.48c0,3.83-.68,6.53-2.05,8.1-1.37,1.57-3.73,2.36-7.1,2.36s-5.95-.75-7.26-2.24c-1.31-1.49-1.97-4.23-1.97-8.23s.69-6.57,2.07-8.15c1.38-1.57,3.77-2.36,7.16-2.36s5.9.75,7.2,2.24c1.3,1.49,1.95,4.25,1.95,8.27Zm-15.84-.04c0,3.28.44,5.46,1.33,6.55.89,1.08,2.67,1.62,5.35,1.62s4.32-.57,5.23-1.72c.92-1.15,1.37-3.3,1.37-6.44s-.44-5.46-1.31-6.55c-.88-1.08-2.64-1.62-5.29-1.62s-4.36.57-5.29,1.7c-.93,1.14-1.4,3.29-1.4,6.46Z"></path><path class="cls-1" d="m197.9,126.65h-2.54v-20.27h2.3l.16,1.68h.08c1.31-.77,2.47-1.31,3.47-1.62,1-.31,2-.47,3.02-.47,1.15,0,2.14.18,2.97.55.83.37,1.5.91,1.99,1.62h.08c1.23-.74,2.44-1.29,3.63-1.64,1.19-.35,2.41-.53,3.67-.53,1.94,0,3.41.5,4.41,1.5,1,1,1.5,2.47,1.5,4.41v14.77h-2.54v-14.49c0-1.34-.36-2.32-1.07-2.95-.71-.63-1.82-.94-3.32-.94-.88,0-1.78.14-2.73.41-.94.27-1.91.68-2.89,1.23.08.33.14.66.16.98.03.33.04.66.04.98v14.77h-2.54v-14.49c0-1.34-.36-2.32-1.07-2.95-.71-.63-1.83-.94-3.37-.94-.77,0-1.57.14-2.42.41-.85.27-1.85.74-3,1.4v16.58Z"></path><path class="cls-1" d="m230.93,132.89h-2.54v-26.51h2.17l.16,1.85h.16c.93-.74,1.98-1.3,3.16-1.68,1.18-.38,2.45-.57,3.82-.57,2.79,0,4.79.83,6.01,2.48,1.22,1.66,1.83,4.33,1.83,8.02s-.73,6.4-2.18,8.02c-1.45,1.63-3.9,2.44-7.35,2.44-1.07,0-2.05-.08-2.93-.23-.89-.15-1.66-.38-2.32-.68v6.85Zm12.23-16.41c0-3.01-.45-5.13-1.33-6.36-.89-1.23-2.5-1.85-4.82-1.85-1.12,0-2.2.16-3.24.49-1.04.33-1.98.81-2.83,1.44v13.46c.68.33,1.44.57,2.26.72.82.15,1.72.23,2.71.23,2.79,0,4.7-.59,5.73-1.78,1.03-1.19,1.54-3.3,1.54-6.34Z"></path><path class="cls-1" d="m255.18,126.94c-2.08,0-3.6-.49-4.58-1.48-.97-.98-1.46-2.54-1.46-4.68s.59-3.65,1.76-4.56,3.17-1.35,5.99-1.35c1.01,0,2,.04,2.95.12s1.89.2,2.79.37v-2.13c0-1.81-.41-3.08-1.23-3.84s-2.16-1.13-4.02-1.13c-1.26,0-2.36.06-3.3.16-.94.11-1.91.29-2.89.53v-2.26c1.15-.27,2.25-.46,3.3-.57,1.05-.11,2.28-.16,3.67-.16,2.41,0,4.18.57,5.31,1.7,1.13,1.14,1.7,2.92,1.7,5.35v13.62h-2.3l-.12-2.01h-.08c-.85.68-1.96,1.24-3.32,1.66-1.37.42-2.76.64-4.19.64Zm2.01-9.97c-2.08,0-3.54.27-4.37.82-.83.55-1.25,1.49-1.25,2.83,0,1.42.34,2.45,1.03,3.08.68.63,1.79.94,3.32.94,1.23,0,2.47-.18,3.71-.55s2.25-.83,3.02-1.37v-5.25c-.9-.16-1.8-.29-2.69-.37-.89-.08-1.81-.12-2.77-.12Z"></path><path class="cls-1" d="m273.48,126.65h-2.54v-20.27h2.17l.16,1.97h.12c1.2-.82,2.42-1.42,3.65-1.81,1.23-.38,2.57-.57,4.02-.57,2.24,0,3.94.56,5.09,1.68,1.15,1.12,1.72,2.78,1.72,4.97v14.03h-2.54v-13.75c0-1.56-.42-2.72-1.27-3.49-.85-.77-2.15-1.15-3.9-1.15-1.07,0-2.16.17-3.28.51-1.12.34-2.26.86-3.41,1.54v16.33Z"></path><path class="cls-1" d="m294.95,131c1.01,0,1.8-.25,2.36-.74.56-.49,1.22-1.78,1.99-3.86l-8.45-20.03h2.83l6.94,17.44,6.57-17.44h2.75l-8.62,21.91c-.74,1.91-1.56,3.23-2.46,3.94-.9.71-2.07,1.07-3.49,1.07-.44,0-.88-.02-1.33-.06-.45-.04-.94-.12-1.46-.23v-2.26c.38.08.77.14,1.15.18.38.04.79.06,1.23.06Z"></path><path class="cls-1" d="m1.72,157.89H.14l4.36-11.03h1.55l4.31,11.03h-1.58l-1-2.66H2.72l-1,2.66Zm3.52-9.65c-.12.41-.25.84-.41,1.3-.16.46-.32.91-.48,1.37l-1.13,3.01h4.06l-1.13-3.01c-.23-.64-.42-1.17-.55-1.57-.14-.4-.26-.77-.36-1.11Z"></path><path class="cls-1" d="m15.7,146.2v11.7h-1.44v-11.7h1.44Z"></path><path class="cls-1" d="m24.55,156.21v1.21c-.3.16-.75.31-1.35.43-.59.12-1.19.18-1.8.18-1.36,0-2.33-.35-2.92-1.05-.59-.7-.88-1.87-.88-3.48s.3-2.69.91-3.4c.61-.71,1.58-1.06,2.92-1.06,1.24,0,2.13.28,2.67.84.54.56.81,1.49.81,2.79,0,.23,0,.45-.02.65-.01.2-.04.44-.07.72h-5.77c.01.96.21,1.65.59,2.06.38.41,1.04.62,1.98.62.5,0,1.03-.05,1.58-.14s1-.21,1.34-.35Zm-.95-3.75c-.01-.77-.18-1.32-.51-1.64-.33-.32-.88-.48-1.65-.48-.87,0-1.48.19-1.84.55-.36.37-.54,1.02-.54,1.94h4.52s0-.08,0-.17c0-.09,0-.16,0-.2Z"></path><path class="cls-1" d="m30.32,160.74c-.59,0-1.13-.04-1.64-.11-.51-.08-.93-.18-1.26-.31v-1.28c.27.11.67.19,1.19.26.52.07,1.04.11,1.56.11.88,0,1.49-.17,1.83-.52s.51-.96.51-1.84v-.55c-.43.26-.9.45-1.39.59-.49.14-.99.2-1.49.2-1.16,0-1.99-.32-2.49-.97s-.75-1.7-.75-3.17.32-2.55.96-3.18c.64-.63,1.73-.95,3.26-.95.55,0,1.14.03,1.78.1.63.06,1.16.14,1.57.24v7.28c0,1.52-.27,2.59-.81,3.19-.54.6-1.48.91-2.81.91Zm.28-10.41c-1.13,0-1.87.19-2.23.58s-.55,1.14-.55,2.25c0,1.06.16,1.78.47,2.19.31.4.91.61,1.8.61.39,0,.79-.06,1.21-.17.42-.11.82-.27,1.2-.47v-4.8c-.28-.06-.58-.11-.91-.14-.32-.04-.65-.05-.99-.05Z"></path><path class="cls-1" d="m38.21,158.03c-.89,0-1.54-.21-1.96-.64-.42-.43-.62-1.1-.62-2.03s.25-1.6.76-2c.5-.39,1.36-.59,2.57-.59.4,0,.79.02,1.18.05.39.03.75.09,1.09.16v-.84c0-.65-.16-1.11-.49-1.39-.33-.28-.86-.42-1.58-.42-.54,0-1.01.02-1.42.06-.41.04-.82.11-1.23.2v-1.25c.47-.12.95-.2,1.43-.25.49-.05,1.04-.07,1.66-.07,1.04,0,1.82.24,2.32.73.5.49.76,1.24.76,2.26v5.87h-1.32l-.07-.81h-.04c-.35.28-.81.51-1.36.69-.56.18-1.11.26-1.66.26Zm.9-4.08c-.8,0-1.35.1-1.66.29-.31.19-.47.54-.47,1.03s.13.89.39,1.12c.26.23.68.34,1.27.34.46,0,.93-.07,1.41-.21.48-.14.87-.32,1.18-.53v-1.86c-.39-.06-.75-.1-1.08-.13-.33-.03-.68-.04-1.03-.04Z"></path><path class="cls-1" d="m50.98,156.17v1.21c-.29.19-.73.34-1.31.47-.58.12-1.19.18-1.82.18-1.23,0-2.1-.33-2.59-1-.5-.67-.75-1.84-.75-3.5s.32-2.79.97-3.47,1.74-1.03,3.29-1.03c.34,0,.65,0,.92.03.27.02.63.06,1.06.11v1.28c-.43-.06-.79-.09-1.06-.11-.28-.01-.58-.02-.92-.02-1.1,0-1.85.23-2.23.68s-.58,1.29-.58,2.52.15,2.07.46,2.51c.31.44.89.66,1.76.66.48,0,.98-.05,1.5-.15.52-.1.95-.23,1.32-.38Z"></path><path class="cls-1" d="m53.43,159.44c.45,0,.78-.1,1.01-.29.23-.19.47-.65.73-1.38l-3.55-8.57h1.62l2.67,7.12,2.53-7.12h1.55l-3.55,9.27c-.32.84-.69,1.43-1.11,1.77-.42.33-.97.5-1.64.5-.2,0-.41-.01-.62-.04-.22-.02-.43-.05-.64-.09v-1.27c.13.04.27.06.43.07.16.01.35.02.57.02Z"></path><path class="cls-1" d="m71.63,153.53c0,1.64-.3,2.8-.91,3.48-.6.68-1.64,1.02-3.1,1.02s-2.56-.33-3.15-.98c-.59-.66-.88-1.83-.88-3.52s.3-2.82.91-3.49c.6-.67,1.64-1.01,3.12-1.01s2.56.33,3.14.99c.58.66.87,1.83.87,3.52Zm-6.59-.02c0,1.29.17,2.14.51,2.56.34.42,1.03.63,2.08.63s1.69-.22,2.04-.66c.35-.44.53-1.28.53-2.52s-.17-2.14-.5-2.56c-.33-.42-1.02-.63-2.07-.63s-1.71.22-2.06.65-.53,1.28-.53,2.53Z"></path><path class="cls-1" d="m73.95,150.44h-1.3v-1.23h1.3v-.21c0-1.01.25-1.76.74-2.24s1.25-.73,2.27-.73c.26,0,.52.01.77.03.26.02.5.06.72.11v1.23c-.14-.03-.33-.06-.57-.08s-.48-.03-.71-.03c-.67,0-1.13.12-1.39.36-.26.24-.39.68-.39,1.31v.25h2.8v1.23h-2.8v7.46h-1.44v-7.46Z"></path><path class="cls-1" d="m87.07,156.54v1.21c-.19.08-.44.15-.76.2s-.63.08-.92.08c-1.06,0-1.81-.23-2.26-.7-.45-.47-.68-1.28-.68-2.43v-4.47h-1.3v-1.23h1.32l.23-2.11h1.2v2.11h3.09v1.23h-3.09v4.41c0,.72.13,1.2.4,1.46.26.26.73.39,1.4.39.21,0,.45-.02.73-.05.28-.04.5-.07.66-.11Z"></path><path class="cls-1" d="m89.93,157.89h-1.44v-8.69h1.32l.07.74h.07c.46-.27.91-.47,1.37-.61.46-.13.91-.2,1.35-.2h.38c.06,0,.11,0,.15.02v1.39c-.08-.02-.18-.04-.31-.04-.12,0-.31,0-.57,0-.42,0-.83.05-1.24.15-.4.1-.79.25-1.15.45v6.81Z"></path><path class="cls-1" d="m97.51,158.03c-.96,0-1.68-.24-2.16-.72-.48-.48-.72-1.2-.72-2.16v-5.94h1.44v5.77c0,.6.15,1.03.46,1.3.3.27.79.4,1.44.4.4,0,.8-.05,1.2-.15s.81-.26,1.22-.47v-6.86h1.44v8.69h-1.32l-.07-.72h-.03c-.61.32-1.14.54-1.58.67-.45.13-.89.19-1.32.19Z"></path><path class="cls-1" d="m107.15,150.33c-.75,0-1.27.09-1.56.26-.29.18-.43.53-.43,1.07,0,.28.07.5.2.64.14.15.35.24.64.29l2.23.33c.7.11,1.2.33,1.48.66.28.33.42.86.42,1.57,0,1.01-.24,1.74-.72,2.19s-1.28.68-2.39.68c-.67,0-1.29-.04-1.86-.11s-1.05-.16-1.42-.28v-1.35c.38.12.84.21,1.38.29s1.1.11,1.68.11c.73,0,1.23-.11,1.49-.32.27-.21.41-.59.41-1.13,0-.34-.08-.59-.23-.75-.15-.16-.43-.27-.83-.33l-2.23-.33c-.56-.08-.98-.3-1.26-.65s-.42-.86-.43-1.53c0-.91.27-1.58.82-2,.55-.42,1.39-.63,2.52-.63.47,0,.89.01,1.28.04.38.02.78.07,1.2.14v1.28c-.3-.05-.66-.08-1.07-.11-.41-.03-.85-.04-1.32-.04Z"></path><path class="cls-1" d="m116.89,156.54v1.21c-.19.08-.44.15-.76.2-.32.05-.63.08-.92.08-1.06,0-1.81-.23-2.26-.7-.45-.47-.68-1.28-.68-2.43v-4.47h-1.3v-1.23h1.32l.23-2.11h1.2v2.11h3.09v1.23h-3.09v4.41c0,.72.13,1.2.4,1.46.26.26.73.39,1.4.39.21,0,.45-.02.73-.05.28-.04.5-.07.66-.11Z"></path><path class="cls-1" d="m119.41,156.38l-.44,2.73c-.02.18-.09.31-.2.4-.11.09-.25.14-.43.14h-.46l.09-3.27h1.44Z"></path><path class="cls-1" d="m130.01,156.17v1.21c-.29.19-.73.34-1.31.47-.58.12-1.19.18-1.82.18-1.23,0-2.1-.33-2.59-1-.5-.67-.75-1.84-.75-3.5s.32-2.79.97-3.47,1.74-1.03,3.29-1.03c.34,0,.65,0,.92.03.27.02.63.06,1.06.11v1.28c-.43-.06-.79-.09-1.06-.11-.28-.01-.58-.02-.92-.02-1.1,0-1.85.23-2.23.68s-.58,1.29-.58,2.52.15,2.07.46,2.51c.31.44.89.66,1.76.66.48,0,.98-.05,1.5-.15.52-.1.95-.23,1.32-.38Z"></path><path class="cls-1" d="m139.23,153.53c0,1.64-.3,2.8-.91,3.48-.6.68-1.64,1.02-3.1,1.02s-2.56-.33-3.15-.98c-.59-.66-.88-1.83-.88-3.52s.3-2.82.91-3.49c.6-.67,1.64-1.01,3.12-1.01s2.56.33,3.14.99c.58.66.87,1.83.87,3.52Zm-6.59-.02c0,1.29.17,2.14.51,2.56.34.42,1.03.63,2.08.63s1.69-.22,2.04-.66c.35-.44.53-1.28.53-2.52s-.17-2.14-.5-2.56c-.33-.42-1.02-.63-2.07-.63s-1.71.22-2.06.65-.53,1.28-.53,2.53Z"></path><path class="cls-1" d="m142.58,157.89h-1.44v-8.69h1.32l.07.67h.05c.52-.29.98-.51,1.41-.64.42-.13.84-.2,1.27-.2.49,0,.91.08,1.27.23.35.15.63.38.83.69h.05c.47-.29.96-.52,1.49-.68.52-.16,1.05-.24,1.57-.24.83,0,1.46.22,1.89.66.43.44.64,1.09.64,1.94v6.26h-1.44v-6.08c0-.5-.14-.88-.4-1.12-.27-.24-.7-.36-1.28-.36-.33,0-.67.05-1.04.15s-.73.24-1.09.43c.02.12.04.23.04.35,0,.12,0,.24,0,.37v6.26h-1.44v-6.08c0-.5-.14-.88-.4-1.12-.27-.24-.7-.36-1.28-.36-.29,0-.6.05-.93.15-.33.1-.71.27-1.14.5v6.91Z"></path><path class="cls-1" d="m156.69,157.89h-1.44v-8.69h1.32l.07.67h.05c.52-.29.98-.51,1.41-.64.42-.13.84-.2,1.27-.2.49,0,.91.08,1.27.23.35.15.63.38.83.69h.05c.47-.29.96-.52,1.49-.68.52-.16,1.05-.24,1.57-.24.83,0,1.46.22,1.89.66.43.44.64,1.09.64,1.94v6.26h-1.44v-6.08c0-.5-.14-.88-.4-1.12-.27-.24-.7-.36-1.28-.36-.33,0-.67.05-1.04.15s-.73.24-1.09.43c.02.12.04.23.04.35,0,.12,0,.24,0,.37v6.26h-1.44v-6.08c0-.5-.14-.88-.4-1.12-.27-.24-.7-.36-1.28-.36-.29,0-.6.05-.93.15-.33.1-.71.27-1.14.5v6.91Z"></path><path class="cls-1" d="m170.85,147.69h-1.55v-1.49h1.55v1.49Zm-.05,10.2h-1.44v-8.69h1.44v8.69Z"></path><path class="cls-1" d="m178.21,156.54v1.21c-.19.08-.44.15-.76.2s-.63.08-.92.08c-1.06,0-1.81-.23-2.26-.7-.45-.47-.68-1.28-.68-2.43v-4.47h-1.3v-1.23h1.32l.23-2.11h1.2v2.11h3.09v1.23h-3.09v4.41c0,.72.13,1.2.4,1.46.26.26.73.39,1.4.39.21,0,.45-.02.73-.05.28-.04.5-.07.66-.11Z"></path><path class="cls-1" d="m181.08,157.89h-1.44v-8.69h1.32l.07.67h.05c.52-.29.98-.51,1.41-.64.42-.13.84-.2,1.27-.2.49,0,.91.08,1.27.23.35.15.63.38.83.69h.05c.47-.29.96-.52,1.49-.68.52-.16,1.05-.24,1.57-.24.83,0,1.46.22,1.89.66.43.44.64,1.09.64,1.94v6.26h-1.44v-6.08c0-.5-.14-.88-.4-1.12-.27-.24-.7-.36-1.28-.36-.33,0-.67.05-1.04.15-.36.1-.73.24-1.09.43.02.12.04.23.04.35,0,.12,0,.24,0,.37v6.26h-1.44v-6.08c0-.5-.14-.88-.4-1.12-.27-.24-.7-.36-1.28-.36-.29,0-.6.05-.93.15-.33.1-.71.27-1.14.5v6.91Z"></path><path class="cls-1" d="m200.27,156.21v1.21c-.3.16-.75.31-1.35.43-.59.12-1.19.18-1.8.18-1.36,0-2.33-.35-2.92-1.05-.59-.7-.88-1.87-.88-3.48s.3-2.69.91-3.4c.61-.71,1.58-1.06,2.92-1.06,1.24,0,2.13.28,2.67.84.54.56.81,1.49.81,2.79,0,.23,0,.45-.02.65-.01.2-.04.44-.07.72h-5.77c.01.96.21,1.65.59,2.06.38.41,1.04.62,1.98.62.5,0,1.03-.05,1.58-.14s1-.21,1.34-.35Zm-.95-3.75c-.01-.77-.18-1.32-.51-1.64-.33-.32-.88-.48-1.65-.48-.87,0-1.48.19-1.84.55-.36.37-.54,1.02-.54,1.94h4.52s0-.08,0-.17c0-.09,0-.16,0-.2Z"></path><path class="cls-1" d="m203.94,157.89h-1.44v-8.69h1.25l.07.84h.05c.47-.35.96-.61,1.47-.77.51-.16,1.08-.25,1.72-.25.96,0,1.69.24,2.19.72.5.48.75,1.19.75,2.13v6.01h-1.44v-5.84c0-.59-.16-1.02-.49-1.3-.33-.28-.83-.42-1.51-.42-.42,0-.85.07-1.29.2s-.88.33-1.31.59v6.77Z"></path><path class="cls-1" d="m217.24,156.54v1.21c-.19.08-.44.15-.76.2s-.63.08-.92.08c-1.06,0-1.81-.23-2.26-.7-.45-.47-.68-1.28-.68-2.43v-4.47h-1.3v-1.23h1.32l.23-2.11h1.2v2.11h3.09v1.23h-3.09v4.41c0,.72.13,1.2.4,1.46.26.26.73.39,1.4.39.21,0,.45-.02.73-.05.28-.04.5-.07.66-.11Z"></path><path class="cls-1" d="m223.64,158.03c-.89,0-1.54-.21-1.96-.64-.42-.43-.62-1.1-.62-2.03s.25-1.6.76-2c.5-.39,1.36-.59,2.57-.59.4,0,.79.02,1.18.05.39.03.75.09,1.09.16v-.84c0-.65-.16-1.11-.49-1.39-.33-.28-.86-.42-1.58-.42-.54,0-1.01.02-1.42.06-.41.04-.82.11-1.23.2v-1.25c.47-.12.95-.2,1.43-.25.49-.05,1.04-.07,1.66-.07,1.04,0,1.82.24,2.32.73.5.49.76,1.24.76,2.26v5.87h-1.32l-.07-.81h-.04c-.35.28-.81.51-1.36.69-.56.18-1.11.26-1.66.26Zm.9-4.08c-.8,0-1.35.1-1.66.29-.31.19-.47.54-.47,1.03s.13.89.39,1.12c.26.23.68.34,1.27.34.46,0,.93-.07,1.41-.21.48-.14.87-.32,1.18-.53v-1.86c-.39-.06-.75-.1-1.08-.13-.33-.03-.68-.04-1.03-.04Z"></path><path class="cls-1" d="m231.78,157.89h-1.44v-8.69h1.25l.07.84h.05c.47-.35.96-.61,1.47-.77.51-.16,1.08-.25,1.72-.25.96,0,1.69.24,2.19.72.5.48.75,1.19.75,2.13v6.01h-1.44v-5.84c0-.59-.16-1.02-.49-1.3-.33-.28-.83-.42-1.51-.42-.42,0-.85.07-1.29.2s-.88.33-1.31.59v6.77Z"></path><path class="cls-1" d="m245.83,146.2h1.44v11.7h-1.25l-.11-.81h-.03c-.34.32-.75.55-1.24.71-.49.16-1.05.24-1.68.24-1.19,0-2.03-.35-2.54-1.05-.51-.7-.76-1.85-.76-3.45s.31-2.74.93-3.45c.62-.7,1.66-1.06,3.11-1.06.41,0,.79.03,1.15.1.36.06.68.16.98.27v-3.2Zm-1.95,4.13c-1.09,0-1.83.23-2.21.69-.38.46-.57,1.3-.57,2.52s.17,2.01.5,2.47c.33.46.96.69,1.87.69.43,0,.85-.06,1.25-.17s.77-.28,1.11-.5v-5.35c-.28-.12-.58-.2-.9-.26-.32-.06-.67-.09-1.05-.09Z"></path><path class="cls-1" d="m255.59,150.33c-.75,0-1.27.09-1.56.26-.29.18-.43.53-.43,1.07,0,.28.07.5.2.64.14.15.35.24.64.29l2.23.33c.7.11,1.2.33,1.48.66.28.33.42.86.42,1.57,0,1.01-.24,1.74-.72,2.19s-1.28.68-2.39.68c-.67,0-1.29-.04-1.86-.11s-1.05-.16-1.42-.28v-1.35c.38.12.84.21,1.38.29s1.1.11,1.68.11c.73,0,1.23-.11,1.49-.32.27-.21.41-.59.41-1.13,0-.34-.08-.59-.23-.75-.15-.16-.43-.27-.83-.33l-2.23-.33c-.56-.08-.98-.3-1.26-.65s-.42-.86-.43-1.53c0-.91.27-1.58.82-2,.55-.42,1.39-.63,2.52-.63.47,0,.89.01,1.28.04.38.02.78.07,1.2.14v1.28c-.3-.05-.66-.08-1.07-.11-.41-.03-.85-.04-1.32-.04Z"></path><path class="cls-1" d="m266.85,156.21v1.21c-.3.16-.75.31-1.35.43-.59.12-1.19.18-1.8.18-1.36,0-2.33-.35-2.92-1.05-.59-.7-.88-1.87-.88-3.48s.3-2.69.91-3.4c.61-.71,1.58-1.06,2.92-1.06,1.24,0,2.13.28,2.67.84.54.56.81,1.49.81,2.79,0,.23,0,.45-.02.65-.01.2-.04.44-.07.72h-5.77c.01.96.21,1.65.59,2.06.38.41,1.04.62,1.98.62.5,0,1.03-.05,1.58-.14s1-.21,1.34-.35Zm-.95-3.75c-.01-.77-.18-1.32-.51-1.64-.33-.32-.88-.48-1.65-.48-.87,0-1.48.19-1.84.55-.36.37-.54,1.02-.54,1.94h4.52s0-.08,0-.17c0-.09,0-.16,0-.2Z"></path><path class="cls-1" d="m270.52,157.89h-1.44v-8.69h1.32l.07.74h.07c.46-.27.91-.47,1.37-.61.46-.13.91-.2,1.35-.2h.38c.06,0,.11,0,.15.02v1.39c-.08-.02-.18-.04-.31-.04-.12,0-.31,0-.57,0-.42,0-.83.05-1.24.15-.4.1-.79.25-1.15.45v6.81Z"></path><path class="cls-1" d="m281.06,149.2h1.58l-3.34,8.69h-1.65l-3.34-8.69h1.6l2.59,7.37,2.57-7.37Z"></path><path class="cls-1" d="m285.47,147.69h-1.55v-1.49h1.55v1.49Zm-.05,10.2h-1.44v-8.69h1.44v8.69Z"></path><path class="cls-1" d="m293.81,156.17v1.21c-.29.19-.73.34-1.31.47-.58.12-1.19.18-1.82.18-1.23,0-2.1-.33-2.59-1-.5-.67-.75-1.84-.75-3.5s.32-2.79.97-3.47,1.74-1.03,3.29-1.03c.34,0,.65,0,.92.03.27.02.63.06,1.06.11v1.28c-.43-.06-.79-.09-1.06-.11-.28-.01-.58-.02-.92-.02-1.1,0-1.85.23-2.23.68s-.58,1.29-.58,2.52.15,2.07.46,2.51c.31.44.89.66,1.76.66.48,0,.98-.05,1.5-.15.52-.1.95-.23,1.32-.38Z"></path><path class="cls-1" d="m301.91,156.21v1.21c-.3.16-.75.31-1.35.43-.59.12-1.19.18-1.8.18-1.36,0-2.33-.35-2.92-1.05-.59-.7-.88-1.87-.88-3.48s.3-2.69.91-3.4c.61-.71,1.58-1.06,2.92-1.06,1.24,0,2.13.28,2.67.84.54.56.81,1.49.81,2.79,0,.23,0,.45-.02.65-.01.2-.04.44-.07.72h-5.77c.01.96.21,1.65.59,2.06.38.41,1.04.62,1.98.62.5,0,1.03-.05,1.58-.14s1-.21,1.34-.35Zm-.95-3.75c-.01-.77-.18-1.32-.51-1.64-.33-.32-.88-.48-1.65-.48-.87,0-1.48.19-1.84.55-.36.37-.54,1.02-.54,1.94h4.52s0-.08,0-.17c0-.09,0-.16,0-.2Z"></path><path class="cls-1" d="m134.46,88.31v-54.85C134.46,14.98,119.48,0,101,0h-9.09c21.35,18.78,20.67,40.61,20.61,41.91.06-1.3-1.55-23.96-24.57-41.91h-54.49C14.98,0,0,14.98,0,33.46v9.22c18.78-21.35,40.61-20.67,41.91-20.61-1.3-.06-22.85,0-41.91,24.21v54.72c0,18.48,14.98,33.46,33.46,33.46h67.54c18.48,0,33.46-14.98,33.46-33.46v-9.09c-18.78,21.35-40.61,20.67-41.91,20.61,1.3.06,24.34-1.55,41.91-24.21Zm-92.06,46.15c-21.35-18.78-20.67-40.61-20.61-41.91-.06,1.3.14,20.95,24.21,41.91h-3.6Zm47.59-21.92h-45.51c-7.36,0-13.89-3.53-18.01-8.98h39.13c7.12,0,10.53-3.37,12.3-7.79l.58-1.44s.03-.06.04-.1l.44-1.1c.04-.09.07-.18.11-.27l1.83-4.58c.34-.86.69-1.73,1.03-2.59l.36-.91c.35-.89.7-1.75,1.03-2.57l.35-.88c.18-.44.35-.87.51-1.27l.49-1.24c.11-.28.21-.53.31-.77l.44-1.11c.08-.21.14-.36.17-.42l.02-.05-18.1.62-2.95,7.01c-1.26,2.83-2.6,3.32-4.57,3.32h-11.07l14.33-39.05c1.13-2.83,1.98-3.32,4.41-3.69l5.55-.62,5.33-13.17h-40.73l-5.41,13.54,6.53.49-14.94,40.65c-.73,1.71-1.29,2.66-2.05,3.23v-44.34c0-12.45,10.09-22.55,22.55-22.55h45.51c12.45,0,22.55,10.09,22.55,22.55v45.51c0,12.45-10.09,22.55-22.55,22.55Z"></path></svg> 